<svg width="64" height="26" viewBox="0 0 64 26" fill="none" xmlns="http://www.w3.org/2000/svg">
<path d="M8.188 7C9.724 7 10.9 7.528 11.716 8.584C12.556 9.616 12.976 11.092 12.976 13.012V25H9.916V13.444C9.916 11.044 9.136 9.844 7.576 9.844C6.88 9.844 6.172 10.108 5.452 10.636C4.732 11.164 4.108 11.884 3.58 12.796V25H0.52V7.432H3.4V10.06C4.048 9.076 4.768 8.32 5.56 7.792C6.376 7.264 7.252 7 8.188 7ZM23.3918 7C25.4558 7 26.9558 7.468 27.8918 8.404C28.8518 9.316 29.3318 10.78 29.3318 12.796V25H26.4158V22.192C25.0238 24.352 23.4518 25.432 21.6998 25.432C20.3078 25.432 19.1918 24.952 18.3518 23.992C17.5358 23.032 17.1278 21.724 17.1278 20.068V19.06C17.1278 17.62 17.6198 16.432 18.6038 15.496C19.5878 14.536 20.9078 14.056 22.5638 14.056C23.4758 14.056 24.7118 14.212 26.2718 14.524V12.544C26.2718 11.512 26.0318 10.768 25.5518 10.312C25.0958 9.856 24.3758 9.628 23.3918 9.628C22.2398 9.628 20.6198 9.808 18.5318 10.168V7.54C20.7878 7.18 22.4078 7 23.3918 7ZM23.3198 16.432C22.3118 16.432 21.5438 16.696 21.0158 17.224C20.4878 17.752 20.2238 18.496 20.2238 19.456V19.852C20.2238 20.74 20.4278 21.436 20.8358 21.94C21.2438 22.444 21.7598 22.696 22.3838 22.696C23.0318 22.696 23.6918 22.42 24.3638 21.868C25.0598 21.292 25.6958 20.488 26.2718 19.456V16.684C25.3598 16.516 24.3758 16.432 23.3198 16.432ZM46.2957 25H43.3797V22.156C41.9397 24.34 40.2957 25.432 38.4477 25.432C36.9597 25.432 35.8197 24.928 35.0277 23.92C34.2357 22.888 33.8397 21.388 33.8397 19.42V13.012C33.8397 11.116 34.2717 9.64 35.1357 8.584C36.0237 7.528 37.2837 7 38.9157 7C39.6117 7 40.3437 7.18 41.1117 7.54C41.8797 7.876 42.5877 8.296 43.2357 8.8V0.411999H46.2957V25ZM39.5997 9.736C38.7357 9.736 38.0637 10.048 37.5837 10.672C37.1277 11.272 36.8997 12.196 36.8997 13.444V19.024C36.8997 21.472 37.6557 22.696 39.1677 22.696C39.8877 22.696 40.5957 22.42 41.2917 21.868C42.0117 21.292 42.6597 20.488 43.2357 19.456V11.536C42.7317 11.008 42.1317 10.576 41.4357 10.24C40.7637 9.904 40.1517 9.736 39.5997 9.736ZM57.2968 7C59.4328 7 61.0168 7.576 62.0488 8.728C63.1048 9.856 63.6328 11.464 63.6328 13.552V18.88C63.6328 20.968 63.1048 22.588 62.0488 23.74C61.0168 24.868 59.4328 25.432 57.2968 25.432C55.1608 25.432 53.5648 24.868 52.5088 23.74C51.4768 22.588 50.9608 20.968 50.9608 18.88V13.552C50.9608 11.464 51.4768 9.856 52.5088 8.728C53.5648 7.576 55.1608 7 57.2968 7ZM57.2968 9.556C56.2648 9.556 55.4608 9.88 54.8848 10.528C54.3088 11.176 54.0208 12.1 54.0208 13.3V19.132C54.0208 20.332 54.3088 21.256 54.8848 21.904C55.4608 22.552 56.2648 22.876 57.2968 22.876C58.3288 22.876 59.1328 22.552 59.7088 21.904C60.2848 21.256 60.5728 20.332 60.5728 19.132V13.264C60.5728 12.064 60.2848 11.152 59.7088 10.528C59.1328 9.88 58.3288 9.556 57.2968 9.556Z" fill="#2E2E2E"/>
</svg>
