<svg width="68" height="72" viewBox="0 0 68 72" fill="none" xmlns="http://www.w3.org/2000/svg">
<path d="M10.188 30C11.724 30 12.9 30.528 13.716 31.584C14.556 32.616 14.976 34.092 14.976 36.012V48H11.916V36.444C11.916 34.044 11.136 32.844 9.576 32.844C8.88 32.844 8.172 33.108 7.452 33.636C6.732 34.164 6.108 34.884 5.58 35.796V48H2.52V30.432H5.4V33.06C6.048 32.076 6.768 31.32 7.56 30.792C8.376 30.264 9.252 30 10.188 30ZM25.3918 30C27.4558 30 28.9558 30.468 29.8918 31.404C30.8518 32.316 31.3318 33.78 31.3318 35.796V48H28.4158V45.192C27.0238 47.352 25.4518 48.432 23.6998 48.432C22.3078 48.432 21.1918 47.952 20.3518 46.992C19.5358 46.032 19.1278 44.724 19.1278 43.068V42.06C19.1278 40.62 19.6198 39.432 20.6038 38.496C21.5878 37.536 22.9078 37.056 24.5638 37.056C25.4758 37.056 26.7118 37.212 28.2718 37.524V35.544C28.2718 34.512 28.0318 33.768 27.5518 33.312C27.0958 32.856 26.3758 32.628 25.3918 32.628C24.2398 32.628 22.6198 32.808 20.5318 33.168V30.54C22.7878 30.18 24.4078 30 25.3918 30ZM25.3198 39.432C24.3118 39.432 23.5438 39.696 23.0158 40.224C22.4878 40.752 22.2238 41.496 22.2238 42.456V42.852C22.2238 43.74 22.4278 44.436 22.8358 44.94C23.2438 45.444 23.7598 45.696 24.3838 45.696C25.0318 45.696 25.6918 45.42 26.3638 44.868C27.0598 44.292 27.6958 43.488 28.2718 42.456V39.684C27.3598 39.516 26.3758 39.432 25.3198 39.432ZM48.2957 48H45.3797V45.156C43.9397 47.34 42.2957 48.432 40.4477 48.432C38.9597 48.432 37.8197 47.928 37.0277 46.92C36.2357 45.888 35.8397 44.388 35.8397 42.42V36.012C35.8397 34.116 36.2717 32.64 37.1357 31.584C38.0237 30.528 39.2837 30 40.9157 30C41.6117 30 42.3437 30.18 43.1117 30.54C43.8797 30.876 44.5877 31.296 45.2357 31.8V23.412H48.2957V48ZM41.5997 32.736C40.7357 32.736 40.0637 33.048 39.5837 33.672C39.1277 34.272 38.8997 35.196 38.8997 36.444V42.024C38.8997 44.472 39.6557 45.696 41.1677 45.696C41.8877 45.696 42.5957 45.42 43.2917 44.868C44.0117 44.292 44.6597 43.488 45.2357 42.456V34.536C44.7317 34.008 44.1317 33.576 43.4357 33.24C42.7637 32.904 42.1517 32.736 41.5997 32.736ZM59.2968 30C61.4328 30 63.0168 30.576 64.0488 31.728C65.1048 32.856 65.6328 34.464 65.6328 36.552V41.88C65.6328 43.968 65.1048 45.588 64.0488 46.74C63.0168 47.868 61.4328 48.432 59.2968 48.432C57.1608 48.432 55.5648 47.868 54.5088 46.74C53.4768 45.588 52.9608 43.968 52.9608 41.88V36.552C52.9608 34.464 53.4768 32.856 54.5088 31.728C55.5648 30.576 57.1608 30 59.2968 30ZM59.2968 32.556C58.2648 32.556 57.4608 32.88 56.8848 33.528C56.3088 34.176 56.0208 35.1 56.0208 36.3V42.132C56.0208 43.332 56.3088 44.256 56.8848 44.904C57.4608 45.552 58.2648 45.876 59.2968 45.876C60.3288 45.876 61.1328 45.552 61.7088 44.904C62.2848 44.256 62.5728 43.332 62.5728 42.132V36.264C62.5728 35.064 62.2848 34.152 61.7088 33.528C61.1328 32.88 60.3288 32.556 59.2968 32.556Z" fill="#2E2E2E"/>
</svg>
