<svg width="200" height="200" viewBox="0 0 200 200" fill="none" xmlns="http://www.w3.org/2000/svg">
<rect width="200" height="200" rx="100" fill="black"/>
<path d="M54.16 79.12L49.48 79.24C49.16 78.84 49 78.32 49 77.68C49 77.04 49.08 76.48 49.24 76C54.68 75.28 59.12 74.16 62.56 72.64C63.68 72.16 64.36 71.92 64.6 71.92C65.32 71.92 66.2 73.04 67.24 75.28C68.28 77.52 69.16 80 69.88 82.72C77.96 78.16 85.84 74.56 93.52 71.92C98.4 71.92 102.16 73.88 104.8 77.8C107.44 81.64 108.76 86.76 108.76 93.16L108.52 109C108.52 122.36 109.12 129.16 110.32 129.4C111.52 129.56 113.76 129.64 117.04 129.64C117.36 130.2 117.52 130.8 117.52 131.44C117.52 132.08 117.36 132.72 117.04 133.36L106 133C99.36 133 94.08 133.32 90.16 133.96C89.76 133.48 89.56 132.8 89.56 131.92L89.68 130.96C92 130.4 93.8 129.64 95.08 128.68C96.36 127.64 97.16 126.68 97.48 125.8C97.88 124.84 98.2 123.44 98.44 121.6C98.68 119.68 98.8 116 98.8 110.56V100.6C98.8 95 98.16 90.28 96.88 86.44C96.32 84.92 95.68 83.8 94.96 83.08C93.2 81.16 91.08 80.2 88.6 80.2C86.12 80.2 83.64 80.68 81.16 81.64C78.68 82.6 76.8 83.48 75.52 84.28C74.24 85.08 72.44 86.28 70.12 87.88C69.8 94.2 69.64 102.68 69.64 113.32C69.64 123.88 70.16 129.24 71.2 129.4C72.32 129.56 74.36 129.64 77.32 129.64C77.64 130.2 77.8 130.8 77.8 131.44C77.8 132.08 77.64 132.72 77.32 133.36L67.12 133C61.04 133 55.76 133.32 51.28 133.96C50.88 133.48 50.68 132.8 50.68 131.92L50.8 130.96C53.12 130.4 54.92 129.64 56.2 128.68C57.48 127.64 58.28 126.68 58.6 125.8C59 124.84 59.32 123.12 59.56 120.64C59.88 118.08 60.04 112.64 60.04 104.32C60.04 96 60 91.4 59.92 90.52C59.92 89.56 59.88 88.36 59.8 86.92C59.72 85.48 59.56 84.4 59.32 83.68C59.08 82.96 58.72 82.2 58.24 81.4C57.44 79.88 56.08 79.12 54.16 79.12ZM143.783 128.56C143.783 131.36 142.623 134.84 140.303 139C137.983 143.24 134.823 147.28 130.823 151.12C129.543 151.12 128.703 150.52 128.303 149.32C132.463 143.32 134.543 138.52 134.543 134.92C131.983 132.84 129.823 130 128.063 126.4C131.183 123.04 134.303 120.76 137.423 119.56C138.863 120.76 140.183 122.28 141.383 124.12C142.663 125.88 143.463 127.36 143.783 128.56ZM135.983 94.12C132.863 91.48 130.543 88.48 129.023 85.12C131.903 82.08 135.023 79.8 138.383 78.28C141.663 81.4 143.823 84.44 144.863 87.4C144.143 88.52 142.863 89.76 141.023 91.12C139.183 92.4 137.503 93.4 135.983 94.12Z" fill="white"/>
</svg>
