<svg width="40" height="41" viewBox="0 0 40 41" fill="none" xmlns="http://www.w3.org/2000/svg">
<path d="M35 8.54167C33.15 7.94375 31.1167 7.6875 29.1667 7.6875C25.9167 7.6875 22.4167 8.37083 20 10.25C17.5833 8.37083 14.0833 7.6875 10.8333 7.6875C7.58333 7.6875 4.08333 8.37083 1.66666 10.25V35.2771C1.66666 35.7042 2.08333 36.1312 2.5 36.1312C2.66666 36.1312 2.75 36.0458 2.91666 36.0458C5.16666 34.9354 8.41666 34.1667 10.8333 34.1667C14.0833 34.1667 17.5833 34.85 20 36.7292C22.25 35.2771 26.3333 34.1667 29.1667 34.1667C31.9167 34.1667 34.75 34.6792 37.0833 35.9604C37.25 36.0458 37.3333 36.0458 37.5 36.0458C37.9167 36.0458 38.3333 35.6187 38.3333 35.1917V10.25C37.3333 9.48125 36.25 8.96875 35 8.54167ZM35 31.6042C33.1667 31.0062 31.1667 30.75 29.1667 30.75C26.3333 30.75 22.25 31.8604 20 33.3125V13.6667C22.25 12.2146 26.3333 11.1042 29.1667 11.1042C31.1667 11.1042 33.1667 11.3604 35 11.9583V31.6042Z" fill="white"/>
<path d="M29.1667 17.9375C30.6333 17.9375 32.05 18.0913 33.3333 18.3817V15.785C32.0167 15.5287 30.6 15.375 29.1667 15.375C26.3333 15.375 23.7667 15.8704 21.6667 16.7929V19.6288C23.55 18.5354 26.1667 17.9375 29.1667 17.9375Z" fill="white"/>
<path d="M21.6667 21.3371V24.1729C23.55 23.0796 26.1667 22.4817 29.1667 22.4817C30.6333 22.4817 32.05 22.6354 33.3333 22.9259V20.3292C32.0167 20.0729 30.6 19.9192 29.1667 19.9192C26.3333 19.9192 23.7667 20.4317 21.6667 21.3371Z" fill="white"/>
<path d="M29.1667 24.4804C26.3333 24.4804 23.7667 24.9758 21.6667 25.8983V28.7342C23.55 27.6408 26.1667 27.0429 29.1667 27.0429C30.6333 27.0429 32.05 27.1967 33.3333 27.4871V24.8904C32.0167 24.6171 30.6 24.4804 29.1667 24.4804Z" fill="white"/>
</svg>
