<svg width="24" height="24" viewBox="0 0 24 24" fill="none" xmlns="http://www.w3.org/2000/svg">
<path d="M11.9446 0.00598993C5.41078 -0.200682 0.10209 4.96612 0 11.5796V12.0963C0 17.3665 3.26689 22.2233 8.3714 23.98C8.98394 24.0833 9.08603 23.7733 9.08603 23.36V20.3632C9.08603 20.3632 5.71705 20.9832 5.00242 18.8132C5.00242 18.8132 4.38988 17.4698 3.67525 16.9531C3.67525 16.9531 2.55226 16.2298 3.77734 16.2298C4.49197 16.3331 5.30869 16.8498 5.61496 17.4698C6.2275 18.7098 7.86095 19.2265 9.08603 18.5032H9.18812C9.29021 17.8831 9.59648 17.2631 9.90275 16.8498C7.14632 16.4364 4.38988 16.2298 4.38988 11.4763C4.38988 10.3396 4.90033 9.30624 5.61496 8.58289C5.61496 7.44619 5.61496 6.30949 5.92123 5.27613C6.94214 4.86279 9.29021 6.6195 9.29021 6.6195C11.332 5.99949 13.3738 5.99949 15.4156 6.6195C15.4156 6.6195 17.6616 4.96612 18.6825 5.37947C19.193 6.41283 19.193 7.65286 18.7846 8.68623C19.4992 9.40958 20.0097 10.5463 20.0097 11.5796C20.0097 16.2298 17.1512 16.7464 14.3947 16.9531C15.0073 17.5731 15.3135 18.2965 15.1094 19.2265V23.36C15.1094 23.8766 15.3135 23.98 15.824 23.98C20.8264 22.2233 24.1954 17.5731 23.9912 12.0963C24.0933 5.4828 18.7846 0.109326 12.1487 0.109326C12.0466 0.00598983 11.9446 0.00598993 11.9446 0.00598993Z" fill="white"/>
</svg>
