<svg width="24" height="22" viewBox="0 0 24 22" fill="none" xmlns="http://www.w3.org/2000/svg">
<path d="M24 2.60297C23.103 3.05402 22.1501 3.34771 21.1744 3.47386C22.204 2.78294 22.9747 1.69209 23.3419 0.405962C22.3726 1.05119 21.3134 1.50628 20.2091 1.75188C19.5337 0.94044 18.6575 0.3767 17.6944 0.133813C16.7313 -0.109073 15.7257 -0.0198914 14.8081 0.389785C13.8905 0.799461 13.1032 1.51072 12.5485 2.43125C11.9938 3.35179 11.6972 4.43911 11.6973 5.55211C11.6961 5.97877 11.7403 6.40405 11.8289 6.81886C9.87102 6.70696 7.95575 6.13299 6.20689 5.13404C4.45803 4.13508 2.91449 2.73338 1.67605 1.01954C1.04603 2.24211 0.853216 3.68965 1.13694 5.06702C1.42066 6.44438 2.15954 7.64783 3.20293 8.43197C2.42172 8.40403 1.65765 8.16655 0.97404 7.73922V7.8085C0.974022 9.09037 1.36725 10.3328 2.08701 11.3249C2.80677 12.317 3.80872 12.9977 4.92285 13.2515C4.4998 13.383 4.06296 13.4496 3.62413 13.4495C3.31214 13.4464 3.00096 13.4133 2.69397 13.3505C3.00874 14.4536 3.62098 15.4184 4.44528 16.1103C5.26957 16.8022 6.26481 17.1867 7.29214 17.2101C5.54655 18.7515 3.39287 19.5879 1.17587 19.5853C0.782904 19.5838 0.390323 19.5574 0 19.5061C2.25113 21.1371 4.87097 22.0029 7.54662 22C16.6026 22 21.5517 13.5385 21.5517 6.20528C21.5517 5.96776 21.543 5.72035 21.5342 5.48284C22.5015 4.69594 23.3365 3.7207 24 2.60297Z" fill="#2E2E2E"/>
</svg>
