<svg width="24" height="22" viewBox="0 0 24 22" fill="none" xmlns="http://www.w3.org/2000/svg">
<mask id="path-1-inside-1_29_859" fill="white">
<path d="M24 2.60297C23.103 3.05402 22.1501 3.34771 21.1744 3.47386C22.204 2.78294 22.9747 1.69209 23.3419 0.405962C22.3726 1.05119 21.3134 1.50628 20.2091 1.75188C19.5337 0.94044 18.6575 0.3767 17.6944 0.133813C16.7313 -0.109073 15.7257 -0.0198914 14.8081 0.389785C13.8905 0.799461 13.1032 1.51072 12.5485 2.43125C11.9938 3.35179 11.6972 4.43911 11.6973 5.55211C11.6961 5.97877 11.7403 6.40405 11.8289 6.81886C9.87102 6.70696 7.95575 6.13299 6.20689 5.13404C4.45803 4.13508 2.91449 2.73338 1.67605 1.01954C1.04603 2.24211 0.853216 3.68965 1.13694 5.06702C1.42066 6.44438 2.15954 7.64783 3.20293 8.43197C2.42172 8.40403 1.65765 8.16655 0.97404 7.73922V7.8085C0.974022 9.09037 1.36725 10.3328 2.08701 11.3249C2.80677 12.317 3.80872 12.9977 4.92285 13.2515C4.4998 13.383 4.06296 13.4496 3.62413 13.4495C3.31214 13.4464 3.00096 13.4133 2.69397 13.3505C3.00874 14.4536 3.62098 15.4184 4.44528 16.1103C5.26957 16.8022 6.26481 17.1867 7.29214 17.2101C5.54655 18.7515 3.39287 19.5879 1.17587 19.5853C0.782904 19.5838 0.390323 19.5574 0 19.5061C2.25113 21.1371 4.87097 22.0029 7.54662 22C16.6026 22 21.5517 13.5385 21.5517 6.20528C21.5517 5.96776 21.543 5.72035 21.5342 5.48284C22.5015 4.69594 23.3365 3.7207 24 2.60297Z"/>
</mask>
<path d="M24 2.60297C23.103 3.05402 22.1501 3.34771 21.1744 3.47386C22.204 2.78294 22.9747 1.69209 23.3419 0.405962C22.3726 1.05119 21.3134 1.50628 20.2091 1.75188C19.5337 0.94044 18.6575 0.3767 17.6944 0.133813C16.7313 -0.109073 15.7257 -0.0198914 14.8081 0.389785C13.8905 0.799461 13.1032 1.51072 12.5485 2.43125C11.9938 3.35179 11.6972 4.43911 11.6973 5.55211C11.6961 5.97877 11.7403 6.40405 11.8289 6.81886C9.87102 6.70696 7.95575 6.13299 6.20689 5.13404C4.45803 4.13508 2.91449 2.73338 1.67605 1.01954C1.04603 2.24211 0.853216 3.68965 1.13694 5.06702C1.42066 6.44438 2.15954 7.64783 3.20293 8.43197C2.42172 8.40403 1.65765 8.16655 0.97404 7.73922V7.8085C0.974022 9.09037 1.36725 10.3328 2.08701 11.3249C2.80677 12.317 3.80872 12.9977 4.92285 13.2515C4.4998 13.383 4.06296 13.4496 3.62413 13.4495C3.31214 13.4464 3.00096 13.4133 2.69397 13.3505C3.00874 14.4536 3.62098 15.4184 4.44528 16.1103C5.26957 16.8022 6.26481 17.1867 7.29214 17.2101C5.54655 18.7515 3.39287 19.5879 1.17587 19.5853C0.782904 19.5838 0.390323 19.5574 0 19.5061C2.25113 21.1371 4.87097 22.0029 7.54662 22C16.6026 22 21.5517 13.5385 21.5517 6.20528C21.5517 5.96776 21.543 5.72035 21.5342 5.48284C22.5015 4.69594 23.3365 3.7207 24 2.60297Z" fill="white"/>
<path d="M21.1744 3.47386L20.6172 2.6435L21.3026 4.4656L21.1744 3.47386ZM23.3419 0.405962L24.3034 0.680496L25.0493 -1.93203L22.7877 -0.426456L23.3419 0.405962ZM20.2091 1.75188L19.4406 2.39166L19.8308 2.86045L20.4263 2.72803L20.2091 1.75188ZM11.6973 5.55211L12.6973 5.55473V5.55208L11.6973 5.55211ZM11.8289 6.81886L11.7718 7.81723L13.0805 7.89202L12.8068 6.61007L11.8289 6.81886ZM1.67605 1.01954L2.48658 0.433844L1.53297 -0.885827L0.787142 0.561459L1.67605 1.01954ZM3.20293 8.43197L3.16718 9.43134L6.3486 9.54514L3.80371 7.63256L3.20293 8.43197ZM0.97404 7.73922L1.5041 6.89127L-0.0259597 5.93482V7.73922H0.97404ZM0.97404 7.8085L1.97404 7.80851V7.8085H0.97404ZM4.92285 13.2515L5.21965 14.2065L8.77125 13.1026L5.14498 12.2765L4.92285 13.2515ZM3.62413 13.4495L3.6144 14.4495L3.62383 14.4495L3.62413 13.4495ZM2.69397 13.3505L2.89444 12.3708L1.28024 12.0405L1.73235 13.6249L2.69397 13.3505ZM7.29214 17.2101L7.95404 17.9597L9.86919 16.2686L7.31492 16.2104L7.29214 17.2101ZM1.17587 19.5853L1.17226 20.5853L1.1747 20.5853L1.17587 19.5853ZM0 19.5061L0.130363 18.5146L-0.586717 20.3159L0 19.5061ZM7.54662 22V21L7.54554 21L7.54662 22ZM21.5342 5.48284L20.9031 4.70711L20.5165 5.02166L20.5349 5.51976L21.5342 5.48284ZM23.5508 1.70957C22.7524 2.11103 21.9078 2.37072 21.0462 2.48211L21.3026 4.4656C22.3924 4.32471 23.4537 3.99701 24.4492 3.49638L23.5508 1.70957ZM21.7316 4.30422C22.9735 3.47087 23.8769 2.17458 24.3034 0.680496L22.3803 0.131428C22.0725 1.2096 21.4345 2.09501 20.6172 2.6435L21.7316 4.30422ZM22.7877 -0.426456C21.918 0.152548 20.9725 0.557666 19.992 0.77573L20.4263 2.72803C21.6542 2.4549 22.8273 1.94983 23.896 1.23838L22.7877 -0.426456ZM20.9777 1.11209C20.1759 0.148904 19.1205 -0.537843 17.9389 -0.835827L17.4499 1.10345C18.1945 1.29124 18.8914 1.73198 19.4406 2.39166L20.9777 1.11209ZM17.9389 -0.835827C16.7555 -1.13428 15.5203 -1.02334 14.4004 -0.523342L15.2158 1.30291C15.9311 0.983553 16.7071 0.916136 17.4499 1.10345L17.9389 -0.835827ZM14.4004 -0.523342C13.2829 -0.0244157 12.3445 0.832322 11.692 1.91512L13.405 2.94739C13.862 2.18911 14.4981 1.62334 15.2158 1.30291L14.4004 -0.523342ZM11.692 1.91512C11.04 2.99717 10.6972 4.26402 10.6973 5.55214L12.6973 5.55208C12.6972 4.6142 12.9476 3.70641 13.405 2.94739L11.692 1.91512ZM10.6973 5.54949C10.696 6.04677 10.7474 6.54293 10.8509 7.02764L12.8068 6.61007C12.7332 6.26516 12.6963 5.91077 12.6973 5.55473L10.6973 5.54949ZM11.8859 5.82048C10.0867 5.71766 8.32121 5.1901 6.70288 4.26571L5.7109 6.00236C7.59029 7.07588 9.6553 7.69626 11.7718 7.81723L11.8859 5.82048ZM6.70288 4.26571C5.08397 3.34098 3.64578 2.03802 2.48658 0.433844L0.865521 1.60524C2.18321 3.42875 3.83209 4.92918 5.7109 6.00236L6.70288 4.26571ZM0.787142 0.561459C0.0499028 1.99207 -0.1712 3.67305 0.157501 5.26877L2.11637 4.86527C1.87763 3.70626 2.04215 2.49214 2.56496 1.47762L0.787142 0.561459ZM0.157501 5.26877C0.486261 6.86479 1.34816 8.28897 2.60214 9.23138L3.80371 7.63256C2.97093 7.0067 2.35506 6.02398 2.11637 4.86527L0.157501 5.26877ZM3.23867 7.43261C2.6383 7.41114 2.04393 7.22871 1.5041 6.89127L0.443977 8.58718C1.27138 9.10439 2.20513 9.39692 3.16718 9.43134L3.23867 7.43261ZM-0.0259597 7.73922V7.8085H1.97404V7.73922H-0.0259597ZM-0.0259597 7.80849C-0.025981 9.291 0.428039 10.7411 1.27759 11.9121L2.89644 10.7377C2.30647 9.92445 1.97402 8.88975 1.97404 7.80851L-0.0259597 7.80849ZM1.27759 11.9121C2.12844 13.0849 3.33233 13.9148 4.70073 14.2266L5.14498 12.2765C4.28512 12.0806 3.4851 11.5491 2.89644 10.7377L1.27759 11.9121ZM4.62606 12.2966C4.29827 12.3985 3.96155 12.4496 3.62443 12.4495L3.62383 14.4495C4.16436 14.4496 4.70133 14.3676 5.21965 14.2065L4.62606 12.2966ZM3.63386 12.4495C3.38624 12.4471 3.13892 12.4208 2.89444 12.3708L2.49349 14.3302C2.86299 14.4058 3.23805 14.4458 3.6144 14.4494L3.63386 12.4495ZM1.73235 13.6249C2.09811 14.9067 2.81487 16.0474 3.80237 16.8763L5.08819 15.3444C4.4271 14.7895 3.91938 14.0006 3.65558 13.0761L1.73235 13.6249ZM3.80237 16.8763C4.7919 17.7069 6.00342 18.181 7.26936 18.2099L7.31492 16.2104C6.52619 16.1924 5.74724 15.8976 5.08819 15.3444L3.80237 16.8763ZM6.63023 16.4605C5.0576 17.8492 3.13674 18.5876 1.17704 18.5853L1.1747 20.5853C3.649 20.5882 6.03549 19.6538 7.95404 17.9597L6.63023 16.4605ZM1.17947 18.5853C0.828976 18.584 0.478732 18.5604 0.130363 18.5146L-0.130363 20.4976C0.301914 20.5544 0.736832 20.5837 1.17226 20.5853L1.17947 18.5853ZM-0.586717 20.3159C1.82825 22.0656 4.65233 23.0031 7.54769 23L7.54554 21C5.0896 21.0026 2.67402 20.2086 0.586717 18.6963L-0.586717 20.3159ZM7.54662 23C12.4224 23 16.2004 20.7095 18.7331 17.4683C21.2494 14.2482 22.5517 10.079 22.5517 6.20528H20.5517C20.5517 9.66485 19.3795 13.393 17.1572 16.2369C14.9514 19.0597 11.7268 21 7.54662 21V23ZM22.5517 6.20528C22.5517 5.9466 22.5422 5.68146 22.5335 5.44592L20.5349 5.51976C20.5437 5.75924 20.5517 5.98892 20.5517 6.20528H22.5517ZM22.1653 6.25856C23.2277 5.39427 24.1389 4.32801 24.8599 3.11343L23.1401 2.09252C22.5341 3.11339 21.7753 3.9976 20.9031 4.70711L22.1653 6.25856Z" fill="#818181" mask="url(#path-1-inside-1_29_859)"/>
</svg>
